{
	"asset":{
		"version":"2.0",
		"generator":"Created using the official Cinema 4D glTF Exporter 1.000x284978"
	},
	"samplers":[{
		"magFilter":9729,
		"minFilter":9729,
		"wrapS":10497,
		"wrapT":10497
	},
	{
		"magFilter":9729,
		"minFilter":9729,
		"wrapS":10497,
		"wrapT":10497
	},
	{
		"magFilter":9729,
		"minFilter":9729,
		"wrapS":10497,
		"wrapT":10497
	},
	{
		"magFilter":9729,
		"minFilter":9729,
		"wrapS":10497,
		"wrapT":10497
	},
	{
		"magFilter":9729,
		"minFilter":9729,
		"wrapS":10497,
		"wrapT":10497
	},
	{
		"magFilter":9729,
		"minFilter":9729,
		"wrapS":10497,
		"wrapT":10497
	},
	{
		"magFilter":9729,
		"minFilter":9729,
		"wrapS":10497,
		"wrapT":10497
	},
	{
		"magFilter":9729,
		"minFilter":9729,
		"wrapS":10497,
		"wrapT":10497
	},
	{
		"magFilter":9729,
		"minFilter":9729,
		"wrapS":10497,
		"wrapT":10497
	},
	{
		"magFilter":9729,
		"minFilter":9729,
		"wrapS":10497,
		"wrapT":10497
	}],
	"scenes":[{
		"nodes":[0,
		1,
		2,
		3,
		4]
	}],
	"nodes":[{
		"name":"Platonico.3",
		"mesh":0,
		"translation":[75.03726196289063,
		253.00682067871095,
		20.661096572875978],
		"rotation":[0.15763290226459504,
		0.9621713757514954,
		-0.06784716248512268,
		0.21160079538822175],
		"scale":[1.0,
		1.0,
		1.0]
	},
	{
		"name":"Platonico.2",
		"mesh":1,
		"translation":[68.00405883789063,
		106.34014892578125,
		180.45883178710938],
		"rotation":[0.17016398906707765,
		0.8294259905815125,
		-0.3902730345726013,
		0.3616402745246887],
		"scale":[1.0,
		1.0,
		1.0]
	},
	{
		"name":"Plane",
		"mesh":2,
		"translation":[360.17510986328127,
		127.2870864868164,
		-152.1114044189453],
		"rotation":[0.0,
		0.0,
		1.0,
		-6.123234262925839e-17],
		"scale":[1.0,
		1.0,
		1.0]
	},
	{
		"name":"Plane2.1",
		"mesh":3,
		"translation":[-225.55735778808595,
		208.76100158691407,
		129.7069549560547],
		"rotation":[0.0,
		0.0,
		1.0,
		-6.123234262925839e-17],
		"scale":[1.0,
		1.0,
		1.0]
	},
	{
		"name":"Plane1.1",
		"mesh":4,
		"translation":[-212.3974151611328,
		118.38907623291016,
		-152.1114044189453],
		"rotation":[0.0,
		0.0,
		1.0,
		-6.123234262925839e-17],
		"scale":[1.0,
		1.0,
		1.0]
	}],
	"meshes":[{
		"name":"Platonico.3",
		"primitives":[{
			"attributes":{
				"NORMAL":2,
				"POSITION":1,
				"TEXCOORD_0":3
			},
			"indices":0,
			"material":0
		}]
	},
	{
		"name":"Platonico.2",
		"primitives":[{
			"attributes":{
				"NORMAL":12,
				"POSITION":11,
				"TEXCOORD_0":13
			},
			"indices":10,
			"material":1
		}]
	},
	{
		"name":"Plane",
		"primitives":[{
			"attributes":{
				"NORMAL":22,
				"POSITION":21,
				"TEXCOORD_0":23
			},
			"indices":20,
			"material":2
		}]
	},
	{
		"name":"Plane2.1",
		"primitives":[{
			"attributes":{
				"NORMAL":26,
				"POSITION":25,
				"TEXCOORD_0":27
			},
			"indices":24,
			"material":3
		}]
	},
	{
		"name":"Plane1.1",
		"primitives":[{
			"attributes":{
				"NORMAL":30,
				"POSITION":29,
				"TEXCOORD_0":31
			},
			"indices":28,
			"material":4
		}]
	}],
	"buffers":[{
		"uri":"data:application/octet-stream;base64,",
		"byteLength":18840
	},
	{
		"uri":"data:application/octet-stream;base64,",
		"byteLength":124
	},
	{
		"uri":"data:application/octet-stream;base64,",
		"byteLength":18840
	},
	{
		"uri":"data:application/octet-stream;base64,",
		"byteLength":124
	},
	{
		"uri":"data:application/octet-stream;base64,",
		"byteLength":5072
	},
	{
		"uri":"data:application/octet-stream;base64,",
		"byteLength":5072
	},
	{
		"uri":"data:application/octet-stream;base64,",
		"byteLength":5072
	}],
	"accessors":[{
		"bufferView":0,
		"type":"SCALAR",
		"componentType":5123,
		"count":780,
		"byteOffset":0,
		"min":[0],
		"max":[539]
	},
	{
		"bufferView":1,
		"type":"VEC3",
		"componentType":5126,
		"count":540,
		"byteOffset":0,
		"min":[-112.39457702636719,
		-121.81515502929688,
		-103.13057708740235],
		"max":[110.43285369873047,
		98.21334075927735,
		102.7137222290039]
	},
	{
		"bufferView":1,
		"type":"VEC3",
		"componentType":5126,
		"count":540,
		"byteOffset":12,
		"min":[-0.9944669008255005,
		-0.9798012375831604,
		-0.948893666267395],
		"max":[0.9944669008255005,
		0.9798012375831604,
		0.948893666267395]
	},
	{
		"bufferView":1,
		"type":"VEC2",
		"componentType":5126,
		"count":540,
		"byteOffset":24,
		"min":[0.000651629117783159,
		0.0006654422031715512],
		"max":[0.9980506896972656,
		0.9980506896972656]
	},
	{
		"bufferView":2,
		"type":"SCALAR",
		"componentType":5126,
		"count":2,
		"byteOffset":0,
		"min":[0.0],
		"max":[3.0]
	},
	{
		"bufferView":2,
		"type":"VEC3",
		"componentType":5126,
		"count":2,
		"byteOffset":8,
		"min":[75.03726196289063,
		253.00682067871095,
		20.661096572875978],
		"max":[75.03726196289063,
		253.00682067871095,
		20.661096572875978]
	},
	{
		"bufferView":3,
		"type":"SCALAR",
		"componentType":5126,
		"count":3,
		"byteOffset":0,
		"min":[0.0],
		"max":[3.0]
	},
	{
		"bufferView":3,
		"type":"VEC4",
		"componentType":5126,
		"count":3,
		"byteOffset":12,
		"min":[-0.3371564447879791,
		-0.9798954129219055,
		-0.330302894115448,
		-0.596956729888916],
		"max":[0.08159057796001435,
		-0.5154503583908081,
		0.029214702546596528,
		0.7864819765090942]
	},
	{
		"bufferView":4,
		"type":"SCALAR",
		"componentType":5126,
		"count":2,
		"byteOffset":0,
		"min":[0.0],
		"max":[3.0]
	},
	{
		"bufferView":4,
		"type":"VEC3",
		"componentType":5126,
		"count":2,
		"byteOffset":8,
		"min":[1.0,
		1.0,
		1.0],
		"max":[1.0,
		1.0,
		1.0]
	},
	{
		"bufferView":5,
		"type":"SCALAR",
		"componentType":5123,
		"count":780,
		"byteOffset":0,
		"min":[0],
		"max":[539]
	},
	{
		"bufferView":6,
		"type":"VEC3",
		"componentType":5126,
		"count":540,
		"byteOffset":0,
		"min":[-94.0528335571289,
		-107.94437408447266,
		-96.74284362792969],
		"max":[111.43025207519531,
		95.98332214355469,
		107.1848373413086]
	},
	{
		"bufferView":6,
		"type":"VEC3",
		"componentType":5126,
		"count":540,
		"byteOffset":12,
		"min":[-0.934172511100769,
		-0.934172511100769,
		-0.9341724514961243],
		"max":[0.9341723918914795,
		0.934172511100769,
		0.934172511100769]
	},
	{
		"bufferView":6,
		"type":"VEC2",
		"componentType":5126,
		"count":540,
		"byteOffset":24,
		"min":[0.0006688491557724774,
		0.0006511828396469355],
		"max":[0.9980506896972656,
		0.9980506896972656]
	},
	{
		"bufferView":7,
		"type":"SCALAR",
		"componentType":5126,
		"count":2,
		"byteOffset":0,
		"min":[0.0],
		"max":[3.0]
	},
	{
		"bufferView":7,
		"type":"VEC3",
		"componentType":5126,
		"count":2,
		"byteOffset":8,
		"min":[68.00405883789063,
		106.34014892578125,
		180.45883178710938],
		"max":[68.00405883789063,
		106.34014892578125,
		180.45883178710938]
	},
	{
		"bufferView":8,
		"type":"SCALAR",
		"componentType":5126,
		"count":3,
		"byteOffset":0,
		"min":[0.0],
		"max":[3.0]
	},
	{
		"bufferView":8,
		"type":"VEC4",
		"componentType":5126,
		"count":3,
		"byteOffset":12,
		"min":[-0.39652732014656069,
		-0.9166572690010071,
		0.0,
		-0.3996742069721222],
		"max":[0.0,
		0.11480279266834259,
		0.9094398617744446,
		0.050055474042892459]
	},
	{
		"bufferView":9,
		"type":"SCALAR",
		"componentType":5126,
		"count":2,
		"byteOffset":0,
		"min":[0.0],
		"max":[3.0]
	},
	{
		"bufferView":9,
		"type":"VEC3",
		"componentType":5126,
		"count":2,
		"byteOffset":8,
		"min":[1.0,
		1.0,
		1.0],
		"max":[1.0,
		1.0,
		1.0]
	},
	{
		"bufferView":10,
		"type":"SCALAR",
		"componentType":5123,
		"count":600,
		"byteOffset":0,
		"min":[0],
		"max":[120]
	},
	{
		"bufferView":11,
		"type":"VEC3",
		"componentType":5126,
		"count":121,
		"byteOffset":0,
		"min":[-175.0,
		0.0,
		-125.0],
		"max":[175.0,
		0.0,
		125.0]
	},
	{
		"bufferView":11,
		"type":"VEC3",
		"componentType":5126,
		"count":121,
		"byteOffset":12,
		"min":[0.0,
		1.0,
		0.0],
		"max":[0.0,
		1.0,
		0.0]
	},
	{
		"bufferView":11,
		"type":"VEC2",
		"componentType":5126,
		"count":121,
		"byteOffset":24,
		"min":[0.0007704828167334199,
		0.0006512546679005027],
		"max":[0.9980506896972656,
		0.9980506896972656]
	},
	{
		"bufferView":12,
		"type":"SCALAR",
		"componentType":5123,
		"count":600,
		"byteOffset":0,
		"min":[0],
		"max":[120]
	},
	{
		"bufferView":13,
		"type":"VEC3",
		"componentType":5126,
		"count":121,
		"byteOffset":0,
		"min":[-175.0,
		0.0,
		-125.0],
		"max":[175.0,
		0.0,
		125.0]
	},
	{
		"bufferView":13,
		"type":"VEC3",
		"componentType":5126,
		"count":121,
		"byteOffset":12,
		"min":[0.0,
		1.0,
		0.0],
		"max":[0.0,
		1.0,
		0.0]
	},
	{
		"bufferView":13,
		"type":"VEC2",
		"componentType":5126,
		"count":121,
		"byteOffset":24,
		"min":[0.0007704828167334199,
		0.0006512546679005027],
		"max":[0.9980506896972656,
		0.9980506896972656]
	},
	{
		"bufferView":14,
		"type":"SCALAR",
		"componentType":5123,
		"count":600,
		"byteOffset":0,
		"min":[0],
		"max":[120]
	},
	{
		"bufferView":15,
		"type":"VEC3",
		"componentType":5126,
		"count":121,
		"byteOffset":0,
		"min":[-175.0,
		0.0,
		-125.0],
		"max":[175.0,
		0.0,
		125.0]
	},
	{
		"bufferView":15,
		"type":"VEC3",
		"componentType":5126,
		"count":121,
		"byteOffset":12,
		"min":[0.0,
		1.0,
		0.0],
		"max":[0.0,
		1.0,
		0.0]
	},
	{
		"bufferView":15,
		"type":"VEC2",
		"componentType":5126,
		"count":121,
		"byteOffset":24,
		"min":[0.0007704828167334199,
		0.0006512546679005027],
		"max":[0.9980506896972656,
		0.9980506896972656]
	}],
	"bufferViews":[{
		"buffer":0,
		"byteOffset":0,
		"byteLength":1560,
		"target":34963
	},
	{
		"buffer":0,
		"byteOffset":1560,
		"byteLength":17280,
		"target":34962,
		"byteStride":32
	},
	{
		"buffer":1,
		"byteOffset":0,
		"byteLength":32
	},
	{
		"buffer":1,
		"byteOffset":32,
		"byteLength":60
	},
	{
		"buffer":1,
		"byteOffset":92,
		"byteLength":32
	},
	{
		"buffer":2,
		"byteOffset":0,
		"byteLength":1560,
		"target":34963
	},
	{
		"buffer":2,
		"byteOffset":1560,
		"byteLength":17280,
		"target":34962,
		"byteStride":32
	},
	{
		"buffer":3,
		"byteOffset":0,
		"byteLength":32
	},
	{
		"buffer":3,
		"byteOffset":32,
		"byteLength":60
	},
	{
		"buffer":3,
		"byteOffset":92,
		"byteLength":32
	},
	{
		"buffer":4,
		"byteOffset":0,
		"byteLength":1200,
		"target":34963
	},
	{
		"buffer":4,
		"byteOffset":1200,
		"byteLength":3872,
		"target":34962,
		"byteStride":32
	},
	{
		"buffer":5,
		"byteOffset":0,
		"byteLength":1200,
		"target":34963
	},
	{
		"buffer":5,
		"byteOffset":1200,
		"byteLength":3872,
		"target":34962,
		"byteStride":32
	},
	{
		"buffer":6,
		"byteOffset":0,
		"byteLength":1200,
		"target":34963
	},
	{
		"buffer":6,
		"byteOffset":1200,
		"byteLength":3872,
		"target":34962,
		"byteStride":32
	}],
	"images":[{
		"uri":"data:image/jpeg;base64,"
	},
	{
		"uri":"data:image/jpeg;base64,"
	},
	{
		"uri":"data:image/jpeg;base64,"
	},
	{
		"uri":"data:image/jpeg;base64,"
	},
	{
		"uri":"data:image/jpeg;base64,"
	},
	{
		"uri":"data:image/jpeg;base64,"
	},
	{
		"uri":"data:image/jpeg;base64,"
	},
	{
		"uri":"data:image/jpeg;base64,"
	},
	{
		"uri":"data:image/jpeg;base64,"
	},
	{
		"uri":"data:image/jpeg;base64,"
	}],
	"textures":[{
		"sampler":0,
		"source":0
	},
	{
		"sampler":1,
		"source":1
	},
	{
		"sampler":2,
		"source":2
	},
	{
		"sampler":3,
		"source":3
	},
	{
		"sampler":4,
		"source":4
	},
	{
		"sampler":5,
		"source":5
	},
	{
		"sampler":6,
		"source":6
	},
	{
		"sampler":7,
		"source":7
	},
	{
		"sampler":8,
		"source":8
	},
	{
		"sampler":9,
		"source":9
	}],
	"materials":[{
		"pbrMetallicRoughness":{
			"baseColorFactor":[1.0,
			1.0,
			1.0,
			1.0],
			"metallicFactor":0.0,
			"roughnessFactor":0.5
		},
		"occlusionTexture":{
			"index":0,
			"strength":1.0
		},
		"emissiveTexture":{
			"index":1
		},
		"emissiveFactor":[1.0,
		1.0,
		1.0],
		"name":"Platonico.6",
		"alphaMode":"OPAQUE",
		"doubleSided":false
	},
	{
		"pbrMetallicRoughness":{
			"baseColorFactor":[1.0,
			1.0,
			1.0,
			1.0],
			"metallicFactor":0.0,
			"roughnessFactor":0.5
		},
		"occlusionTexture":{
			"index":2,
			"strength":1.0
		},
		"emissiveTexture":{
			"index":3
		},
		"emissiveFactor":[1.0,
		1.0,
		1.0],
		"name":"Platonico.5",
		"alphaMode":"OPAQUE",
		"doubleSided":false
	},
	{
		"pbrMetallicRoughness":{
			"baseColorFactor":[1.0,
			1.0,
			1.0,
			1.0],
			"metallicFactor":0.0,
			"roughnessFactor":0.5
		},
		"occlusionTexture":{
			"index":4,
			"strength":1.0
		},
		"emissiveTexture":{
			"index":5
		},
		"emissiveFactor":[1.0,
		1.0,
		1.0],
		"name":"Plane.4",
		"alphaMode":"OPAQUE",
		"doubleSided":false
	},
	{
		"pbrMetallicRoughness":{
			"baseColorFactor":[1.0,
			1.0,
			1.0,
			1.0],
			"metallicFactor":0.0,
			"roughnessFactor":0.5
		},
		"occlusionTexture":{
			"index":6,
			"strength":1.0
		},
		"emissiveTexture":{
			"index":7
		},
		"emissiveFactor":[1.0,
		1.0,
		1.0],
		"name":"Plane2.3",
		"alphaMode":"OPAQUE",
		"doubleSided":false
	},
	{
		"pbrMetallicRoughness":{
			"baseColorFactor":[1.0,
			1.0,
			1.0,
			1.0],
			"metallicFactor":0.0,
			"roughnessFactor":0.5
		},
		"occlusionTexture":{
			"index":8,
			"strength":1.0
		},
		"emissiveTexture":{
			"index":9
		},
		"emissiveFactor":[1.0,
		1.0,
		1.0],
		"name":"Plane1.3",
		"alphaMode":"OPAQUE",
		"doubleSided":false
	}],
	"animations":[{
		"samplers":[{
			"input":4,
			"interpolation":"LINEAR",
			"output":5
		},
		{
			"input":6,
			"interpolation":"LINEAR",
			"output":7
		},
		{
			"input":8,
			"interpolation":"LINEAR",
			"output":9
		},
		{
			"input":14,
			"interpolation":"LINEAR",
			"output":15
		},
		{
			"input":16,
			"interpolation":"LINEAR",
			"output":17
		},
		{
			"input":18,
			"interpolation":"LINEAR",
			"output":19
		}],
		"channels":[{
			"sampler":0,
			"target":{
				"node":0,
				"path":"translation"
			}
		},
		{
			"sampler":1,
			"target":{
				"node":0,
				"path":"rotation"
			}
		},
		{
			"sampler":2,
			"target":{
				"node":0,
				"path":"scale"
			}
		},
		{
			"sampler":3,
			"target":{
				"node":1,
				"path":"translation"
			}
		},
		{
			"sampler":4,
			"target":{
				"node":1,
				"path":"rotation"
			}
		},
		{
			"sampler":5,
			"target":{
				"node":1,
				"path":"scale"
			}
		}]
	}]
}